<svg width="22" height="19" viewBox="0 0 22 19" fill="none" xmlns="http://www.w3.org/2000/svg">
<path fill-rule="evenodd" clip-rule="evenodd" d="M21.6158 2.82596C20.8125 3.1774 20.0092 3.42842 19.1056 3.52883C20.0092 2.97658 20.7121 2.1231 21.0133 1.11901C20.1599 1.62106 19.206 1.97249 18.2521 2.1733C17.4488 1.31982 16.2941 0.767578 15.039 0.767578C12.6291 0.767578 10.6711 2.72555 10.6711 5.13537C10.6711 5.48681 10.7213 5.83823 10.7716 6.13947C7.1066 5.93865 3.89349 4.23169 1.73467 1.57085C1.33303 2.22351 1.13221 2.97658 1.13221 3.77985C1.13221 5.28599 1.88529 6.64151 3.09021 7.44478C2.38734 7.44478 1.68447 7.24397 1.08201 6.89253V6.94273C1.08201 9.05133 2.58816 10.8587 4.59636 11.2603C4.24491 11.3607 3.84328 11.4109 3.44164 11.4109C3.14041 11.4109 2.88939 11.3607 2.63836 11.3105C3.19061 13.0677 4.79718 14.3228 6.75516 14.373C5.24902 15.5277 3.39143 16.2306 1.33303 16.2306C0.981601 16.2306 0.630169 16.2306 0.278732 16.1804C2.23672 17.4355 4.49594 18.1383 7.00619 18.1383C15.0892 18.1383 19.457 11.4611 19.457 5.68762C19.457 5.48681 19.457 5.28599 19.457 5.13537C20.3105 4.48272 21.0636 3.67944 21.6158 2.82596V2.82596Z" fill="#535353"/>
</svg>
