<svg width="14" height="15" viewBox="0 0 14 15" fill="none" xmlns="http://www.w3.org/2000/svg">
<path fill-rule="evenodd" clip-rule="evenodd" d="M7.02573 0.65686C3.22354 0.65686 0.141113 3.73929 0.141113 7.54148C0.141113 11.3437 3.22354 14.4261 7.02573 14.4261C10.8279 14.4261 13.9103 11.3437 13.9103 7.54148C13.9103 3.73929 10.8279 0.65686 7.02573 0.65686ZM10.0099 6.37735C10.0649 6.31454 10.1067 6.24137 10.1329 6.16216C10.1592 6.08294 10.1693 5.99927 10.1628 5.91607C10.1562 5.83288 10.1331 5.75183 10.0948 5.6777C10.0564 5.60358 10.0036 5.53787 9.93952 5.48444C9.87541 5.43102 9.80126 5.39095 9.72143 5.3666C9.64161 5.34226 9.55772 5.33412 9.47471 5.34267C9.39169 5.35123 9.31122 5.3763 9.23804 5.41641C9.16485 5.45652 9.10043 5.51086 9.04856 5.57623L6.3573 8.80512L4.96473 7.41192C4.84669 7.29791 4.68859 7.23483 4.52449 7.23626C4.36038 7.23768 4.20341 7.3035 4.08736 7.41955C3.97132 7.53559 3.9055 7.69257 3.90407 7.85667C3.90265 8.02077 3.96573 8.17887 4.07974 8.29691L5.95736 10.1745C6.01886 10.236 6.09249 10.284 6.17355 10.3154C6.25461 10.3468 6.34134 10.361 6.42819 10.3571C6.51504 10.3531 6.60012 10.3311 6.678 10.2925C6.75588 10.2538 6.82486 10.1994 6.88053 10.1326L10.0099 6.37735Z" fill="#007AFF"/>
</svg>
